<svg width="1400" height="495" viewBox="0 0 1400 495" fill="none" xmlns="http://www.w3.org/2000/svg">
<path fill-rule="evenodd" clip-rule="evenodd" d="M63.5258 75.7436C101.763 32.6048 159.319 0 242.788 0C329.966 0 391.637 38.9997 431.308 85.4568C470.58 131.446 488.868 185.438 488.868 217.072H468.736C468.736 211.388 467.969 204.568 466.384 196.927C448.728 201.955 429.841 195.719 418.417 181.612L369.671 203.294C366.645 204.64 363.151 204.411 360.327 202.683C357.502 200.955 355.708 197.949 355.528 194.642C352.863 145.557 309.677 111.809 245.734 111.809C243.046 111.809 240.471 110.734 238.58 108.825C236.689 106.915 235.641 104.328 235.668 101.641L236.055 63.2461C216.087 59.8043 200.416 43.9618 196.89 23.9665C186.44 25.7973 176.565 28.2473 167.236 31.2372V170.07C167.236 173.504 165.485 176.701 162.591 178.551C159.698 180.401 156.061 180.648 152.944 179.206L90.4266 150.291C75.8764 164.493 54.1035 168.709 35.3272 160.633C29.4933 175.33 25.2311 189.793 22.2865 203.22H195.647C201.207 203.22 205.714 207.726 205.714 213.286C205.714 218.845 201.207 223.352 195.647 223.352H10.0663C7.09981 223.352 4.28435 222.044 2.37171 219.776C0.459073 217.508 -0.355979 214.513 0.144191 211.589C7.03908 171.281 25.5685 118.567 63.5258 75.7436ZM43.4525 142.204C56.6913 147.782 72.4202 143.269 80.7083 130.59C88.9696 117.953 86.9015 101.479 76.6945 91.2676C62.9488 107.204 52.0112 124.634 43.4525 142.204ZM90.5643 76.6631C105.565 91.3475 110.105 114.017 101.918 133.424L147.103 154.323V38.8647C124.866 48.6658 106.194 61.735 90.5643 76.6631ZM216.877 21.3055C219.552 34.2323 230.857 43.8095 244.225 43.8095C257.453 43.8095 268.66 34.4326 271.486 21.7121C262.282 20.6771 252.718 20.1325 242.788 20.1325C233.815 20.1325 225.182 20.5344 216.877 21.3055ZM291.404 24.8081C287.841 43.1255 274.057 57.8176 256.196 62.4294L255.899 91.9471C316.128 95.1802 364.036 127.22 373.924 179.368L409.433 163.574C404.765 144.859 412.203 124.921 428.208 114.068C424.425 108.832 420.358 103.637 415.998 98.5305C387.405 65.047 346.551 35.8301 291.404 24.8081ZM439.327 130.86C429.202 137.882 425.179 151.592 430.621 163.395C436.099 175.277 449.2 180.973 461.087 177.496C456.273 163.035 449.099 147.01 439.327 130.86ZM199.048 65.0496C204.608 65.0496 209.115 69.5564 209.115 75.1159V161.062H188.982V75.1159C188.982 69.5564 193.489 65.0496 199.048 65.0496ZM236.113 142.597C236.133 137.051 240.634 132.566 246.18 132.566C272.901 132.566 296.484 137.36 313.438 151.279C329.681 164.613 338.086 184.819 339.117 211.865C358.314 216.093 372.569 233.364 372.569 253.848C372.569 274.419 358.191 291.751 338.869 295.884V458.069C372.809 444.761 398.826 424.357 418.558 401.416C449.666 365.25 465.421 322.424 471.303 290.343H398.326V270.211H483.024C485.905 270.211 488.648 271.446 490.559 273.602C492.469 275.759 493.364 278.631 493.017 281.491C488.655 317.406 471.822 370.364 433.821 414.545C395.519 459.075 336.05 494.242 247.806 494.242C159.4 494.242 99.5272 457.271 61.1056 411.534C22.9904 366.162 6.12118 312.383 2.606 277.961C2.04121 272.43 6.06685 267.489 11.5975 266.924C17.1282 266.359 22.0695 270.385 22.6343 275.916C25.7915 306.832 41.3125 356.673 76.5207 398.584C103.825 431.087 143.053 458.958 198.098 469.552C203.227 451.975 217.956 438.486 236.263 435.414L236.718 400.557C172.28 395.904 123.966 347.235 123.966 279.955C123.966 277.281 125.03 274.716 126.924 272.828C128.817 270.939 131.384 269.882 134.059 269.889L235.67 270.153L236.113 142.597ZM256.385 436.315C273.177 440.725 286.335 454.053 290.727 470.91C300.55 469.381 309.879 467.334 318.736 464.831V295.31C300.61 290.325 287.387 273.576 287.387 253.848C287.387 234.028 300.733 217.215 318.989 212.317C318.064 189.283 311.072 175.384 300.664 166.839C290.668 158.633 276.012 154.078 256.21 152.968L255.768 280.28C255.749 285.836 251.232 290.326 245.676 290.311L144.535 290.048C149.236 343.757 191.409 380.79 246.912 380.79C249.605 380.79 252.185 381.868 254.077 383.785C255.968 385.701 257.013 388.295 256.978 390.987L256.385 436.315ZM270.387 473.259C266.389 462.474 256.124 454.886 244.225 454.886C232.581 454.886 222.503 462.152 218.329 472.568C227.733 473.579 237.554 474.11 247.806 474.11C255.583 474.11 263.108 473.819 270.387 473.259ZM329.978 231.008C317.685 231.008 307.519 241.123 307.519 253.848C307.519 266.573 317.685 276.687 329.978 276.687C342.271 276.687 352.436 266.573 352.436 253.848C352.436 241.123 342.271 231.008 329.978 231.008ZM69.9245 275.081C75.4237 274.264 80.5435 278.061 81.3599 283.56C87.2921 323.518 102.931 355.033 134.965 388.446L120.432 402.379C85.7871 366.242 68.0471 330.981 61.4457 286.516C60.6293 281.017 64.4254 275.897 69.9245 275.081ZM197.918 332.103C197.918 326.543 202.425 322.037 207.984 322.037H289.033C294.593 322.037 299.099 326.543 299.099 332.103V419.894H278.967V342.169H207.984C202.425 342.169 197.918 337.662 197.918 332.103ZM363.889 386.78C383.822 368.832 394.714 356.373 408.847 329.938L426.601 339.431C411.196 368.245 398.733 382.497 377.361 401.741C373.229 405.461 366.864 405.128 363.144 400.997C359.424 396.865 359.758 390.5 363.889 386.78Z" fill="#F53F61"/>
<path d="M654.788 279.079C654.788 279.802 655.653 280.174 656.168 279.657C663.974 271.497 672.233 262.778 680.986 253.481C690.255 243.647 699.338 233.833 708.256 223.999C717.153 214.165 725.618 204.682 733.651 195.571C746.997 180.385 766.173 171.708 786.357 171.708H828.888C829.589 171.708 829.959 172.514 829.506 173.051C812.082 192.658 793.71 212.946 774.411 233.916C754.886 255.154 735.258 275.856 715.547 296.041C715.217 296.371 715.238 296.888 715.588 297.198C726.051 306.02 737.049 316.66 748.542 329.097C760.282 341.782 771.651 355.294 782.67 369.591C793.689 383.888 803.987 398.205 813.606 412.481C822.895 426.323 830.701 439.153 836.983 450.992C837.271 451.529 836.859 452.169 836.262 452.169H763.248C762.96 452.169 762.712 452.025 762.568 451.777C756.204 440.827 748.872 429.319 740.613 417.316C732.23 405.167 723.25 393.371 713.611 381.925C703.992 370.479 694.168 359.674 684.199 349.468C674.663 339.737 665.292 331.39 656.085 324.428C655.55 324.035 654.788 324.428 654.788 325.089V451.343C654.788 451.797 654.438 452.149 653.984 452.149H590.918C590.465 452.149 590.115 451.797 590.115 451.343V111.567C590.115 74.1718 617.096 42.2933 653.861 36.1985C654.355 36.1159 654.788 36.4878 654.788 37.0043V279.079Z" fill="#F53F61"/>
<path d="M973.928 164.725C995.307 164.725 1013.31 167.411 1027.93 172.783C1042.53 178.134 1054.21 185.654 1062.95 195.302C1071.68 204.95 1077.92 216.665 1081.67 230.424C1085.42 244.184 1087.27 259.286 1087.27 275.732V445.723C1077.3 447.872 1062.22 450.475 1042.1 453.492C1021.96 456.529 999.241 458.057 973.928 458.057C957.183 458.057 941.86 456.446 927.957 453.223C914.055 450 902.212 444.835 892.408 437.666C882.604 430.517 874.942 421.22 869.422 409.775C863.902 398.329 861.143 384.218 861.143 367.401C861.143 351.307 864.253 337.733 870.493 326.638C876.713 315.565 885.199 306.536 895.889 299.553C906.578 292.57 918.956 287.57 933.044 284.533C947.112 281.496 961.817 279.967 977.141 279.967C984.267 279.967 991.744 280.422 999.591 281.31C1007.42 282.219 1015.8 283.727 1024.72 285.876V275.153C1024.72 267.654 1023.83 260.505 1022.04 253.708C1020.25 246.932 1017.14 240.94 1012.69 235.734C1008.24 230.569 1002.35 226.54 995.06 223.668C987.748 220.817 978.562 219.392 967.523 219.392C952.57 219.392 938.832 220.466 926.371 222.615C913.89 224.763 903.736 227.263 895.909 230.114L893.087 211.686C890.019 191.645 903.344 172.7 923.22 169.064C923.385 169.043 923.529 169.002 923.694 168.981C939.347 166.171 956.092 164.725 973.928 164.725ZM979.262 406.572C999.22 406.572 1014.36 405.498 1024.7 403.349V331.494C1021.13 330.419 1015.97 329.345 1009.19 328.271C1002.41 327.196 994.936 326.659 986.739 326.659C979.613 326.659 972.383 327.196 965.092 328.271C957.78 329.345 951.19 331.308 945.32 334.159C939.45 337.03 934.713 341.039 931.149 346.224C927.586 351.41 925.794 357.938 925.794 365.789C925.794 381.16 930.614 391.8 940.232 397.689C949.871 403.639 962.868 406.572 979.262 406.572Z" fill="#F53F61"/>
<path d="M1166.38 180.819C1178.86 177.245 1195.05 173.856 1215.02 170.633C1234.98 167.41 1257.08 165.799 1281.32 165.799C1304.12 165.799 1323.2 168.939 1338.52 175.179C1353.84 181.439 1366.06 190.198 1375.14 201.458C1384.22 212.718 1390.65 226.312 1394.38 242.221C1398.13 258.129 1400 275.566 1400 294.511V452.169H1390.18C1359.88 452.169 1335.33 427.542 1335.33 397.151V304.697C1335.33 289.677 1334.34 276.909 1332.38 266.352C1330.43 255.815 1327.21 247.22 1322.76 240.609C1318.32 233.998 1312.26 229.184 1304.6 226.126C1296.94 223.089 1287.56 221.56 1276.53 221.56C1268.33 221.56 1259.78 222.098 1250.86 223.172C1241.94 224.246 1235.35 225.135 1231.09 225.858V452.148C1195.38 452.148 1166.42 423.1 1166.42 387.275V180.819H1166.38Z" fill="#F53F61"/>
</svg>
